<?xml version="1.0" encoding="UTF-8" standalone="no" ?>
<!DOCTYPE svg PUBLIC "-//W3C//DTD SVG 1.1//EN" "http://www.w3.org/Graphics/SVG/1.1/DTD/svg11.dtd">
<svg xmlns="http://www.w3.org/2000/svg" xmlns:xlink="http://www.w3.org/1999/xlink" version="1.1" width="555.17" height="319.98" viewBox="27.595000000000027 19.47999999999999 555.17 319.98" xml:space="preserve">
<desc>Created with Fabric.js 4.6.0</desc>
<defs>
</defs>
<g transform="matrix(1 0 0 1 305.18 179.47)" id="onhfCAlC6dEVLnT4kBBtk"  >
<g style="" vector-effect="non-scaling-stroke"   >
		<g transform="matrix(1 0 0 1 -192.17 101.48)" id="JxdXaUX7W11lgtLU16ql-"  >
<g style="" vector-effect="non-scaling-stroke"   >
		<g transform="matrix(0.57 0 0 0.57 48.66 21.76)" id="eN-JM1A2qCjfxwbc9QtBH"  >
<g style="" vector-effect="non-scaling-stroke"   >
		<g transform="matrix(1 0 0 1 -0.01 0.01)" id="FYrPIbVWY5sN5N4P1zxH2"  >
<path style="stroke: none; stroke-width: 1; stroke-dasharray: none; stroke-linecap: butt; stroke-dashoffset: 0; stroke-linejoin: miter; stroke-miterlimit: 4; fill: rgb(252,194,27); fill-rule: nonzero; opacity: 1;" vector-effect="non-scaling-stroke"  transform=" translate(-63.99, -64.01)" d="M 64 9.98 C 2.0700000000000003 9.98 0.6000000000000014 79.41000000000001 0.6000000000000014 93.16000000000001 C 0.6000000000000014 106.89000000000001 28.98 118.03000000000002 64 118.03000000000002 C 99.02000000000001 118.03000000000002 127.39 106.89000000000001 127.39 93.16000000000001 C 127.39 79.41 125.93 9.98 64 9.98 z" stroke-linecap="round" />
</g>
		<g transform="matrix(1 0 0 1 -25.88 -28)" id="3cq5BLPt26nByyEkfHmre"  >
<path style="stroke: none; stroke-width: 1; stroke-dasharray: none; stroke-linecap: butt; stroke-dashoffset: 0; stroke-linejoin: miter; stroke-miterlimit: 4; fill: rgb(47,47,47); fill-rule: nonzero; opacity: 1;" vector-effect="non-scaling-stroke"  transform=" translate(-38.12, -36)" d="M 26.73 37.92 C 26.86 37.61 30.14 30.310000000000002 37.92 30.150000000000002 L 37.97 30.150000000000002 C 45.78 30.01 49.31 37.22 49.47 37.54 C 50.129999999999995 38.92 49.57 40.589999999999996 48.199999999999996 41.26 C 47.839999999999996 41.449999999999996 47.44 41.54 47.059999999999995 41.55 C 46.03999999999999 41.57 45.019999999999996 41 44.53999999999999 39.989999999999995 C 44.42999999999999 39.78999999999999 42.32999999999999 35.66 38.06999999999999 35.74999999999999 L 38.04999999999999 35.74999999999999 C 33.77999999999999 35.839999999999996 31.81999999999999 40.03999999999999 31.74999999999999 40.209999999999994 C 31.10999999999999 41.60999999999999 29.47999999999999 42.23 28.09999999999999 41.599999999999994 C 26.74 40.95 26.11 39.33 26.73 37.92 z" stroke-linecap="round" />
</g>
		<g transform="matrix(1 0 0 1 -9.35 2.8)" id="_0Pe9gSw8xbRuPsqzuDD-"  >
<path style="stroke: none; stroke-width: 1; stroke-dasharray: none; stroke-linecap: butt; stroke-dashoffset: 0; stroke-linejoin: miter; stroke-miterlimit: 4; fill: rgb(237,108,48); fill-rule: nonzero; opacity: 1;" vector-effect="non-scaling-stroke"  transform=" translate(-54.65, -66.8)" d="M 73.15 78.76 C 64.28 84.44 51.230000000000004 84.21000000000001 41.690000000000005 80.91000000000001 C 36.61000000000001 79.09000000000002 29.300000000000004 74.17000000000002 26.200000000000003 66.42000000000002 C 24.85 63.06000000000002 24.640000000000004 57.430000000000014 25.970000000000002 54.180000000000014 C 27.01 51.59000000000002 29.44 50.55000000000001 31.89 50.37000000000001 C 35.65 50.10000000000001 40.230000000000004 53.54000000000001 43.980000000000004 54.820000000000014 C 51.050000000000004 57.250000000000014 57.800000000000004 57.19000000000001 66.02000000000001 56.20000000000002 C 71.30000000000001 55.30000000000002 76.68 53.55000000000002 81.23000000000002 56.210000000000015 C 83.94000000000001 57.84000000000002 84.50000000000001 61.34000000000002 84.13000000000002 64.34000000000002 C 83.57 68.83 79.94 74.41 73.15 78.76 z" stroke-linecap="round" />
</g>
		<g transform="matrix(1 0 0 1 12.08 -21.64)" id="8V16O6CfPlvfaEAhcIgTL"  >
<path style="stroke: none; stroke-width: 1; stroke-dasharray: none; stroke-linecap: butt; stroke-dashoffset: 0; stroke-linejoin: miter; stroke-miterlimit: 4; fill: rgb(47,47,47); fill-rule: nonzero; opacity: 1;" vector-effect="non-scaling-stroke"  transform=" translate(-76.08, -42.36)" d="M 85.96 50.06 C 85.86 50.07 85.75999999999999 50.07 85.64999999999999 50.080000000000005 C 84.27999999999999 50.11000000000001 83.05999999999999 49.080000000000005 82.86999999999999 47.64000000000001 C 82.83999999999999 47.440000000000005 82.02 42.080000000000005 77.24999999999999 40.580000000000005 C 72.37999999999998 39.07000000000001 68.61999999999999 43.17 68.57999999999998 43.21000000000001 C 67.54999999999998 44.36000000000001 65.80999999999999 44.43000000000001 64.68999999999998 43.400000000000006 C 63.579999999999984 42.36000000000001 63.48999999999998 40.59 64.51999999999998 39.46000000000001 C 64.77999999999999 39.17000000000001 70.69999999999999 32.69000000000001 78.87999999999998 35.24000000000001 C 87.06999999999998 37.81000000000001 88.28999999999998 46.56000000000001 88.33999999999997 46.94000000000001 C 88.53 48.45 87.46 49.86 85.96 50.06 z" stroke-linecap="round" />
</g>
		<g transform="matrix(1 0 0 1 42.15 -1.27)" id="_O4At11SGSX1sTqp70I48"  >
<path style="stroke: none; stroke-width: 1; stroke-dasharray: none; stroke-linecap: butt; stroke-dashoffset: 0; stroke-linejoin: miter; stroke-miterlimit: 4; fill: rgb(255,255,255); fill-rule: nonzero; opacity: 1;" vector-effect="non-scaling-stroke"  transform=" translate(-106.15, -62.73)" d="M 111.96 67.82 C 111.52 69.71 110.58999999999999 72.33999999999999 108.61 73.25999999999999 C 106.65 74.16999999999999 104.43 73.63999999999999 102.84 72.3 C 100.87 70.66 100.42 68.38 100.25 65.97 C 100.13 64.55 100.16 63.16 100.26 62.04 C 100.53 59.129999999999995 99.94000000000001 56.269999999999996 100.14 53.43 C 100.2 52.6 100.54 51.55 101.51 51.79 C 102.31 51.98 103.38000000000001 52.8 104.05000000000001 53.26 C 108.51 56.4 113.33 62.02 111.96 67.82 z" stroke-linecap="round" />
</g>
</g>
</g>
		<g transform="matrix(1.2 0 0 1.2 -36.75 -23.15)" id="G-R7E7KpF_WQ56drFD9Hv"  >
<g style="" vector-effect="non-scaling-stroke"   >
		<g transform="matrix(1 0 0 1 0 0)" id="7wGsgTAOE0QWbYqtl9DUe"  >
<path style="stroke: none; stroke-width: 1; stroke-dasharray: none; stroke-linecap: butt; stroke-dashoffset: 0; stroke-linejoin: miter; stroke-miterlimit: 4; fill: rgb(179,181,179); fill-rule: nonzero; opacity: 1;" vector-effect="non-scaling-stroke"  transform=" translate(-40.03, -40.05)" d="M 80 37.7 C 80 23 62.1 11.1 40 11.1 C 17.9 11.1 0 23 0 37.7 C 0 52.400000000000006 17.9 64.30000000000001 40 64.30000000000001 C 43.4 64.30000000000001 46.7 64.00000000000001 50 63.500000000000014 C 54.7 67.10000000000001 60.5 69.00000000000001 67 69.00000000000001 C 73.7 69.00000000000001 78.7 67.00000000000001 79 67.00000000000001 C 79.8 66.70000000000002 80.2 66.00000000000001 80 65.30000000000001 C 79.7 64.4 78.3 64.20000000000002 77.2 64.20000000000002 C 72.2 63.90000000000002 68.3 60.70000000000002 65.9 58.100000000000016 C 74.9 52.9 80 45.6 80 37.7 z" stroke-linecap="round" />
</g>
		<g transform="matrix(1 0 0 1 -0.03 0)" id="t53SaYwjjHe62p3IPP-DB"  >
<path style="stroke: none; stroke-width: 1; stroke-dasharray: none; stroke-linecap: butt; stroke-dashoffset: 0; stroke-linejoin: miter; stroke-miterlimit: 4; fill: rgb(255,255,255); fill-rule: nonzero; opacity: 1;" vector-effect="non-scaling-stroke"  transform=" translate(-40, -40.05)" d="M 76.2 37.7 C 76.2 45 71.10000000000001 51.800000000000004 62.2 56.300000000000004 C 61.300000000000004 56.7 61.1 57.7 61.6 58.400000000000006 C 63.4 60.60000000000001 66.6 63.900000000000006 71 65.7 C 69.8 65.9 68.4 66 66.9 66 C 61.00000000000001 66 56.00000000000001 64.3 51.900000000000006 60.8 C 51.50000000000001 60.5 50.900000000000006 60.199999999999996 50.10000000000001 60.4 C 46.80000000000001 61 43.400000000000006 61.3 40.00000000000001 61.3 C 20.000000000000007 61.3 3.8000000000000043 50.699999999999996 3.8000000000000043 37.699999999999996 C 3.8000000000000043 24.699999999999996 20.000000000000004 14.099999999999994 40.00000000000001 14.099999999999994 C 60.000000000000014 14.099999999999994 76.2 24.7 76.2 37.7 z" stroke-linecap="round" />
</g>
</g>
</g>
		<g transform="matrix(1 0.02 -0.02 1 -36.49 -26.69)" style="" id="iFt_wMrrL22Knc4wfEahB"  >
		<text xml:space="preserve" font-family="Rammetto One" font-size="17" font-style="normal" font-weight="800" letter-spacing="0.034" line-height="1" style="stroke: none; stroke-width: 1; stroke-dasharray: none; stroke-linecap: butt; stroke-dashoffset: 0; stroke-linejoin: miter; stroke-miterlimit: 4; fill: rgb(0,0,0); fill-opacity: 0.85; fill-rule: nonzero; opacity: 1; white-space: pre;" ><tspan x="-31.35" y="-4.08" >J</tspan><tspan x="-18.21" y="-4.08" >o</tspan><tspan x="-5" y="-4.08" >i</tspan><tspan x="1.85" y="-4.08" >n</tspan><tspan x="-31.35" y="15.13" >G</tspan><tspan x="-17.01" y="15.13" >a</tspan><tspan x="-2.65" y="15.13" >m</tspan><tspan x="17.28" y="15.13" >e</tspan></text>
</g>
</g>
</g>
		<g transform="matrix(1 0 0 1 192.32 101.62)" id="H3psTqxyjY8kChX_rL9we"  >
<g style="" vector-effect="non-scaling-stroke"   >
		<g transform="matrix(0.57 0 0 0.57 48.78 21.88)" id="rfslpFzIZ_hD0G-9rqxNy"  >
<g style="" vector-effect="non-scaling-stroke"   >
		<g transform="matrix(1 0 0 1 -0.01 0.01)" id="9mzBMqP7unxlKEjBLZeHV"  >
<path style="stroke: none; stroke-width: 1; stroke-dasharray: none; stroke-linecap: butt; stroke-dashoffset: 0; stroke-linejoin: miter; stroke-miterlimit: 4; fill: rgb(252,194,27); fill-rule: nonzero; opacity: 1;" vector-effect="non-scaling-stroke"  transform=" translate(-63.99, -64.01)" d="M 64 9.98 C 2.0700000000000003 9.98 0.6000000000000014 79.41000000000001 0.6000000000000014 93.16000000000001 C 0.6000000000000014 106.89000000000001 28.98 118.03000000000002 64 118.03000000000002 C 99.02000000000001 118.03000000000002 127.39 106.89000000000001 127.39 93.16000000000001 C 127.39 79.41 125.93 9.98 64 9.98 z" stroke-linecap="round" />
</g>
		<g transform="matrix(1 0 0 1 -25.88 -28)" id="qiwPH4C7lmKX8kWGwzYgq"  >
<path style="stroke: none; stroke-width: 1; stroke-dasharray: none; stroke-linecap: butt; stroke-dashoffset: 0; stroke-linejoin: miter; stroke-miterlimit: 4; fill: rgb(47,47,47); fill-rule: nonzero; opacity: 1;" vector-effect="non-scaling-stroke"  transform=" translate(-38.12, -36)" d="M 26.73 37.92 C 26.86 37.61 30.14 30.310000000000002 37.92 30.150000000000002 L 37.97 30.150000000000002 C 45.78 30.01 49.31 37.22 49.47 37.54 C 50.129999999999995 38.92 49.57 40.589999999999996 48.199999999999996 41.26 C 47.839999999999996 41.449999999999996 47.44 41.54 47.059999999999995 41.55 C 46.03999999999999 41.57 45.019999999999996 41 44.53999999999999 39.989999999999995 C 44.42999999999999 39.78999999999999 42.32999999999999 35.66 38.06999999999999 35.74999999999999 L 38.04999999999999 35.74999999999999 C 33.77999999999999 35.839999999999996 31.81999999999999 40.03999999999999 31.74999999999999 40.209999999999994 C 31.10999999999999 41.60999999999999 29.47999999999999 42.23 28.09999999999999 41.599999999999994 C 26.74 40.95 26.11 39.33 26.73 37.92 z" stroke-linecap="round" />
</g>
		<g transform="matrix(1 0 0 1 -9.35 2.8)" id="lYkNVyVXqf3DJeDLLxArz"  >
<path style="stroke: none; stroke-width: 1; stroke-dasharray: none; stroke-linecap: butt; stroke-dashoffset: 0; stroke-linejoin: miter; stroke-miterlimit: 4; fill: rgb(237,108,48); fill-rule: nonzero; opacity: 1;" vector-effect="non-scaling-stroke"  transform=" translate(-54.65, -66.8)" d="M 73.15 78.76 C 64.28 84.44 51.230000000000004 84.21000000000001 41.690000000000005 80.91000000000001 C 36.61000000000001 79.09000000000002 29.300000000000004 74.17000000000002 26.200000000000003 66.42000000000002 C 24.85 63.06000000000002 24.640000000000004 57.430000000000014 25.970000000000002 54.180000000000014 C 27.01 51.59000000000002 29.44 50.55000000000001 31.89 50.37000000000001 C 35.65 50.10000000000001 40.230000000000004 53.54000000000001 43.980000000000004 54.820000000000014 C 51.050000000000004 57.250000000000014 57.800000000000004 57.19000000000001 66.02000000000001 56.20000000000002 C 71.30000000000001 55.30000000000002 76.68 53.55000000000002 81.23000000000002 56.210000000000015 C 83.94000000000001 57.84000000000002 84.50000000000001 61.34000000000002 84.13000000000002 64.34000000000002 C 83.57 68.83 79.94 74.41 73.15 78.76 z" stroke-linecap="round" />
</g>
		<g transform="matrix(1 0 0 1 12.08 -21.64)" id="VomO0egr_rknKP1rlgxEp"  >
<path style="stroke: none; stroke-width: 1; stroke-dasharray: none; stroke-linecap: butt; stroke-dashoffset: 0; stroke-linejoin: miter; stroke-miterlimit: 4; fill: rgb(47,47,47); fill-rule: nonzero; opacity: 1;" vector-effect="non-scaling-stroke"  transform=" translate(-76.08, -42.36)" d="M 85.96 50.06 C 85.86 50.07 85.75999999999999 50.07 85.64999999999999 50.080000000000005 C 84.27999999999999 50.11000000000001 83.05999999999999 49.080000000000005 82.86999999999999 47.64000000000001 C 82.83999999999999 47.440000000000005 82.02 42.080000000000005 77.24999999999999 40.580000000000005 C 72.37999999999998 39.07000000000001 68.61999999999999 43.17 68.57999999999998 43.21000000000001 C 67.54999999999998 44.36000000000001 65.80999999999999 44.43000000000001 64.68999999999998 43.400000000000006 C 63.579999999999984 42.36000000000001 63.48999999999998 40.59 64.51999999999998 39.46000000000001 C 64.77999999999999 39.17000000000001 70.69999999999999 32.69000000000001 78.87999999999998 35.24000000000001 C 87.06999999999998 37.81000000000001 88.28999999999998 46.56000000000001 88.33999999999997 46.94000000000001 C 88.53 48.45 87.46 49.86 85.96 50.06 z" stroke-linecap="round" />
</g>
		<g transform="matrix(1 0 0 1 42.15 -1.27)" id="OpmOf4X2J0bAUqL6ssK48"  >
<path style="stroke: none; stroke-width: 1; stroke-dasharray: none; stroke-linecap: butt; stroke-dashoffset: 0; stroke-linejoin: miter; stroke-miterlimit: 4; fill: rgb(255,255,255); fill-rule: nonzero; opacity: 1;" vector-effect="non-scaling-stroke"  transform=" translate(-106.15, -62.73)" d="M 111.96 67.82 C 111.52 69.71 110.58999999999999 72.33999999999999 108.61 73.25999999999999 C 106.65 74.16999999999999 104.43 73.63999999999999 102.84 72.3 C 100.87 70.66 100.42 68.38 100.25 65.97 C 100.13 64.55 100.16 63.16 100.26 62.04 C 100.53 59.129999999999995 99.94000000000001 56.269999999999996 100.14 53.43 C 100.2 52.6 100.54 51.55 101.51 51.79 C 102.31 51.98 103.38000000000001 52.8 104.05000000000001 53.26 C 108.51 56.4 113.33 62.02 111.96 67.82 z" stroke-linecap="round" />
</g>
</g>
</g>
		<g transform="matrix(1.2 0 0 1.2 -36.63 -23.02)" id="6ob1Wa-8D5RJlxeDam10H"  >
<g style="" vector-effect="non-scaling-stroke"   >
		<g transform="matrix(1 0 0 1 0 0)" id="v08TkXYrTj7ghIZ0PcnG_"  >
<path style="stroke: none; stroke-width: 1; stroke-dasharray: none; stroke-linecap: butt; stroke-dashoffset: 0; stroke-linejoin: miter; stroke-miterlimit: 4; fill: rgb(179,181,179); fill-rule: nonzero; opacity: 1;" vector-effect="non-scaling-stroke"  transform=" translate(-40.03, -40.05)" d="M 80 37.7 C 80 23 62.1 11.1 40 11.1 C 17.9 11.1 0 23 0 37.7 C 0 52.400000000000006 17.9 64.30000000000001 40 64.30000000000001 C 43.4 64.30000000000001 46.7 64.00000000000001 50 63.500000000000014 C 54.7 67.10000000000001 60.5 69.00000000000001 67 69.00000000000001 C 73.7 69.00000000000001 78.7 67.00000000000001 79 67.00000000000001 C 79.8 66.70000000000002 80.2 66.00000000000001 80 65.30000000000001 C 79.7 64.4 78.3 64.20000000000002 77.2 64.20000000000002 C 72.2 63.90000000000002 68.3 60.70000000000002 65.9 58.100000000000016 C 74.9 52.9 80 45.6 80 37.7 z" stroke-linecap="round" />
</g>
		<g transform="matrix(1 0 0 1 -0.03 0)" id="mMBQ-dG2ucqcArwh9e6QM"  >
<path style="stroke: none; stroke-width: 1; stroke-dasharray: none; stroke-linecap: butt; stroke-dashoffset: 0; stroke-linejoin: miter; stroke-miterlimit: 4; fill: rgb(255,255,255); fill-rule: nonzero; opacity: 1;" vector-effect="non-scaling-stroke"  transform=" translate(-40, -40.05)" d="M 76.2 37.7 C 76.2 45 71.10000000000001 51.800000000000004 62.2 56.300000000000004 C 61.300000000000004 56.7 61.1 57.7 61.6 58.400000000000006 C 63.4 60.60000000000001 66.6 63.900000000000006 71 65.7 C 69.8 65.9 68.4 66 66.9 66 C 61.00000000000001 66 56.00000000000001 64.3 51.900000000000006 60.8 C 51.50000000000001 60.5 50.900000000000006 60.199999999999996 50.10000000000001 60.4 C 46.80000000000001 61 43.400000000000006 61.3 40.00000000000001 61.3 C 20.000000000000007 61.3 3.8000000000000043 50.699999999999996 3.8000000000000043 37.699999999999996 C 3.8000000000000043 24.699999999999996 20.000000000000004 14.099999999999994 40.00000000000001 14.099999999999994 C 60.000000000000014 14.099999999999994 76.2 24.7 76.2 37.7 z" stroke-linecap="round" />
</g>
</g>
</g>
		<g transform="matrix(1 0.02 -0.02 1 -36.37 -26.58)" style="" id="XqTsW8RQP_6zE2NDO3nBk"  >
		<text xml:space="preserve" font-family="Rammetto One" font-size="17" font-style="normal" font-weight="800" letter-spacing="0.034" line-height="1" style="stroke: none; stroke-width: 1; stroke-dasharray: none; stroke-linecap: butt; stroke-dashoffset: 0; stroke-linejoin: miter; stroke-miterlimit: 4; fill: rgb(0,0,0); fill-opacity: 0.85; fill-rule: nonzero; opacity: 1; white-space: pre;" ><tspan x="-31.35" y="-4.08" >S</tspan><tspan x="-19.31" y="-4.08" >t</tspan><tspan x="-9.95" y="-4.08" >a</tspan><tspan x="4.41" y="-4.08" >r</tspan><tspan x="13.29" y="-4.08" >t</tspan><tspan x="-31.35" y="15.13" >G</tspan><tspan x="-17.01" y="15.13" >a</tspan><tspan x="-2.64" y="15.13" >m</tspan><tspan x="17.28" y="15.13" >e</tspan></text>
</g>
</g>
</g>
		<g transform="matrix(1.39 0 0 1.39 -8.88 -53.29)" id="LVP6TvHW9ZYne1pgnddcf"  >
<g style="" vector-effect="non-scaling-stroke"   >
		<g transform="matrix(1 0 0 1 2.04 12.76)" id="InMOEXbiLESY5S13Z5h8l"  >
<g style="" vector-effect="non-scaling-stroke"   >
		<g transform="matrix(1 0 0 1 -0.01 0.01)" id="SHV1LpHz9_vVaZdza9DXI"  >
<path style="stroke: none; stroke-width: 1; stroke-dasharray: none; stroke-linecap: butt; stroke-dashoffset: 0; stroke-linejoin: miter; stroke-miterlimit: 4; fill: rgb(252,194,27); fill-rule: nonzero; opacity: 1;" vector-effect="non-scaling-stroke"  transform=" translate(-63.99, -64.01)" d="M 64 9.98 C 2.0700000000000003 9.98 0.6000000000000014 79.41000000000001 0.6000000000000014 93.16000000000001 C 0.6000000000000014 106.89000000000001 28.98 118.03000000000002 64 118.03000000000002 C 99.02000000000001 118.03000000000002 127.39 106.89000000000001 127.39 93.16000000000001 C 127.39 79.41 125.93 9.98 64 9.98 z" stroke-linecap="round" />
</g>
		<g transform="matrix(1 0 0 1 -25.88 -28)" id="JKwLSzHytM24zbopfBmJQ"  >
<path style="stroke: none; stroke-width: 1; stroke-dasharray: none; stroke-linecap: butt; stroke-dashoffset: 0; stroke-linejoin: miter; stroke-miterlimit: 4; fill: rgb(47,47,47); fill-rule: nonzero; opacity: 1;" vector-effect="non-scaling-stroke"  transform=" translate(-38.12, -36)" d="M 26.73 37.92 C 26.86 37.61 30.14 30.310000000000002 37.92 30.150000000000002 L 37.97 30.150000000000002 C 45.78 30.01 49.31 37.22 49.47 37.54 C 50.129999999999995 38.92 49.57 40.589999999999996 48.199999999999996 41.26 C 47.839999999999996 41.449999999999996 47.44 41.54 47.059999999999995 41.55 C 46.03999999999999 41.57 45.019999999999996 41 44.53999999999999 39.989999999999995 C 44.42999999999999 39.78999999999999 42.32999999999999 35.66 38.06999999999999 35.74999999999999 L 38.04999999999999 35.74999999999999 C 33.77999999999999 35.839999999999996 31.81999999999999 40.03999999999999 31.74999999999999 40.209999999999994 C 31.10999999999999 41.60999999999999 29.47999999999999 42.23 28.09999999999999 41.599999999999994 C 26.74 40.95 26.11 39.33 26.73 37.92 z" stroke-linecap="round" />
</g>
		<g transform="matrix(1 0 0 1 -9.35 2.8)" id="k3JAG_VV-TyBwugqk_L0g"  >
<path style="stroke: none; stroke-width: 1; stroke-dasharray: none; stroke-linecap: butt; stroke-dashoffset: 0; stroke-linejoin: miter; stroke-miterlimit: 4; fill: rgb(237,108,48); fill-rule: nonzero; opacity: 1;" vector-effect="non-scaling-stroke"  transform=" translate(-54.65, -66.8)" d="M 73.15 78.76 C 64.28 84.44 51.230000000000004 84.21000000000001 41.690000000000005 80.91000000000001 C 36.61000000000001 79.09000000000002 29.300000000000004 74.17000000000002 26.200000000000003 66.42000000000002 C 24.85 63.06000000000002 24.640000000000004 57.430000000000014 25.970000000000002 54.180000000000014 C 27.01 51.59000000000002 29.44 50.55000000000001 31.89 50.37000000000001 C 35.65 50.10000000000001 40.230000000000004 53.54000000000001 43.980000000000004 54.820000000000014 C 51.050000000000004 57.250000000000014 57.800000000000004 57.19000000000001 66.02000000000001 56.20000000000002 C 71.30000000000001 55.30000000000002 76.68 53.55000000000002 81.23000000000002 56.210000000000015 C 83.94000000000001 57.84000000000002 84.50000000000001 61.34000000000002 84.13000000000002 64.34000000000002 C 83.57 68.83 79.94 74.41 73.15 78.76 z" stroke-linecap="round" />
</g>
		<g transform="matrix(1 0 0 1 12.08 -21.64)" id="uFYH15kzP0ZiTcLkO9iWX"  >
<path style="stroke: none; stroke-width: 1; stroke-dasharray: none; stroke-linecap: butt; stroke-dashoffset: 0; stroke-linejoin: miter; stroke-miterlimit: 4; fill: rgb(47,47,47); fill-rule: nonzero; opacity: 1;" vector-effect="non-scaling-stroke"  transform=" translate(-76.08, -42.36)" d="M 85.96 50.06 C 85.86 50.07 85.75999999999999 50.07 85.64999999999999 50.080000000000005 C 84.27999999999999 50.11000000000001 83.05999999999999 49.080000000000005 82.86999999999999 47.64000000000001 C 82.83999999999999 47.440000000000005 82.02 42.080000000000005 77.24999999999999 40.580000000000005 C 72.37999999999998 39.07000000000001 68.61999999999999 43.17 68.57999999999998 43.21000000000001 C 67.54999999999998 44.36000000000001 65.80999999999999 44.43000000000001 64.68999999999998 43.400000000000006 C 63.579999999999984 42.36000000000001 63.48999999999998 40.59 64.51999999999998 39.46000000000001 C 64.77999999999999 39.17000000000001 70.69999999999999 32.69000000000001 78.87999999999998 35.24000000000001 C 87.06999999999998 37.81000000000001 88.28999999999998 46.56000000000001 88.33999999999997 46.94000000000001 C 88.53 48.45 87.46 49.86 85.96 50.06 z" stroke-linecap="round" />
</g>
		<g transform="matrix(1 0 0 1 42.15 -1.27)" id="jekrzNCoUMcEIRZ2u41wm"  >
<path style="stroke: none; stroke-width: 1; stroke-dasharray: none; stroke-linecap: butt; stroke-dashoffset: 0; stroke-linejoin: miter; stroke-miterlimit: 4; fill: rgb(255,255,255); fill-rule: nonzero; opacity: 1;" vector-effect="non-scaling-stroke"  transform=" translate(-106.15, -62.73)" d="M 111.96 67.82 C 111.52 69.71 110.58999999999999 72.33999999999999 108.61 73.25999999999999 C 106.65 74.16999999999999 104.43 73.63999999999999 102.84 72.3 C 100.87 70.66 100.42 68.38 100.25 65.97 C 100.13 64.55 100.16 63.16 100.26 62.04 C 100.53 59.129999999999995 99.94000000000001 56.269999999999996 100.14 53.43 C 100.2 52.6 100.54 51.55 101.51 51.79 C 102.31 51.98 103.38000000000001 52.8 104.05000000000001 53.26 C 108.51 56.4 113.33 62.02 111.96 67.82 z" stroke-linecap="round" />
</g>
</g>
</g>
		<g transform="matrix(0.97 0.24 -0.24 0.97 56.41 -2.19)" style="" id="b3CsgshJV2mowWINmg16J"  >
		<text xml:space="preserve" font-family="Rammetto One" font-size="22" font-style="normal" font-weight="800" letter-spacing="0.044" line-height="1" style="stroke: none; stroke-width: 1; stroke-dasharray: none; stroke-linecap: butt; stroke-dashoffset: 0; stroke-linejoin: miter; stroke-miterlimit: 4; fill: rgb(0,0,0); fill-opacity: 0.85; fill-rule: nonzero; opacity: 1; white-space: pre;" ><tspan x="-25.27" y="7.38" >e</tspan><tspan x="-9.06" y="7.38" style="white-space: pre; "> </tspan><tspan x="-3.52" y="7.38" >?</tspan><tspan x="8.94" y="7.38" style="white-space: pre; "> </tspan><tspan x="14.48" y="7.38" >!</tspan></text>
</g>
		<g transform="matrix(1 -0.07 0.07 1 -70.94 -12.83)" style="" id="m7IF4jkjv5V7vwgUpRD97"  >
		<text xml:space="preserve" font-family="Rammetto One" font-size="22" font-style="normal" font-weight="800" letter-spacing="0.044" line-height="1" style="stroke: none; stroke-width: 1; stroke-dasharray: none; stroke-linecap: butt; stroke-dashoffset: 0; stroke-linejoin: miter; stroke-miterlimit: 4; fill: rgb(0,0,0); fill-opacity: 0.85; fill-rule: nonzero; opacity: 1; white-space: pre;" ><tspan x="-12.14" y="7.38" >M</tspan></text>
</g>
		<g transform="matrix(1 0.05 -0.05 1 0.01 -61.75)" style="" id="yBog5cM0cLHptLfueqJSi"  >
		<text xml:space="preserve" font-family="Rammetto One" font-size="22" font-style="normal" font-weight="800" letter-spacing="0.044" line-height="1" style="stroke: none; stroke-width: 1; stroke-dasharray: none; stroke-linecap: butt; stroke-dashoffset: 0; stroke-linejoin: miter; stroke-miterlimit: 4; fill: rgb(0,0,0); fill-opacity: 0.85; fill-rule: nonzero; opacity: 1; white-space: pre;" ><tspan x="-18.31" y="5.8" >a</tspan><tspan x="0.28" y="5.8" >t</tspan></text>
</g>
		<g transform="matrix(0.99 -0.14 0.14 0.99 -40.32 -58.65)" style="" id="U6GLiwc_fpI_HwL0IfSUI"  >
		<text xml:space="preserve" font-family="Rammetto One" font-size="22" font-style="normal" font-weight="800" letter-spacing="0.044" line-height="1" style="stroke: none; stroke-width: 1; stroke-dasharray: none; stroke-linecap: butt; stroke-dashoffset: 0; stroke-linejoin: miter; stroke-miterlimit: 4; fill: rgb(0,0,0); fill-opacity: 0.85; fill-rule: nonzero; opacity: 1; white-space: pre;" ><tspan x="-24.78" y="5.88" >W</tspan><tspan x="3.88" y="5.88" >h</tspan></text>
</g>
		<g transform="matrix(0.97 0.24 -0.24 0.97 46.85 -54.97)" style="" id="1j5ecs17PNAzaSFD06Iji"  >
		<text xml:space="preserve" font-family="Rammetto One" font-size="22" font-style="normal" font-weight="800" letter-spacing="0.044" line-height="1" style="stroke: none; stroke-width: 1; stroke-dasharray: none; stroke-linecap: butt; stroke-dashoffset: 0; stroke-linejoin: miter; stroke-miterlimit: 4; fill: rgb(0,0,0); fill-opacity: 0.85; fill-rule: nonzero; opacity: 1; white-space: pre;" ><tspan x="-23.27" y="5.8" >t</tspan><tspan x="-11.15" y="5.8" >h</tspan></text>
</g>
		<g transform="matrix(0.93 0.36 -0.36 0.93 61.94 -50.08)" style="" id="yM8TQ00oxLnOCfyaYyFNz"  >
		<text xml:space="preserve" font-family="Rammetto One" font-size="22" font-style="normal" font-weight="800" letter-spacing="0.044" line-height="1" style="stroke: none; stroke-width: 1; stroke-dasharray: none; stroke-linecap: butt; stroke-dashoffset: 0; stroke-linejoin: miter; stroke-miterlimit: 4; fill: rgb(0,0,0); fill-opacity: 0.85; fill-rule: nonzero; opacity: 1; white-space: pre;" ><tspan x="-8.36" y="5.8" >e</tspan></text>
</g>
		<g transform="matrix(1 -0.07 0.07 1 -44.98 -15.5)" style="" id="jpGvS_o7N85nIUwSIH23Y"  >
		<text xml:space="preserve" font-family="Rammetto One" font-size="22" font-style="normal" font-weight="800" letter-spacing="0.044" line-height="1" style="stroke: none; stroke-width: 1; stroke-dasharray: none; stroke-linecap: butt; stroke-dashoffset: 0; stroke-linejoin: miter; stroke-miterlimit: 4; fill: rgb(0,0,0); fill-opacity: 0.85; fill-rule: nonzero; opacity: 1; white-space: pre;" ><tspan x="-12.14" y="7.38" >e</tspan></text>
</g>
</g>
</g>
</g>
</g>
</svg>